<?xml version="1.0" encoding="UTF-8"?>
<!DOCTYPE svg PUBLIC "-//W3C//DTD SVG 1.1//EN" "http://www.w3.org/Graphics/SVG/1.1/DTD/svg11.dtd">
<svg xmlns="http://www.w3.org/2000/svg" xmlns:xlink="http://www.w3.org/1999/xlink" version="1.1"  width="36" height="36" viewBox="0 0 298 298">
   
     <style>
    path {
      stroke: black;
      stroke-width: 8.9px;
	  }
  </style>
   <path fill="#9E9E9E" d="m223.195,70h-49.221v-14.25c0-8.837-7.163-16-16-16-8.837,0-16,7.163-16,16v14.25h-15.322v-54c0-8.837-7.163-16-16-16s-16,7.163-16,16v54h-3.899c-9.472,0-17.153,7.678-17.153,17.15 0,5.341 0,11.714 0,18.858-0.052,0-0.103-0.008-0.155-0.008-8.723,0-15.794,7.071-15.794,15.794v15.663c0,8.723 7.071,15.794 15.794,15.794 0.052,0 0.103-0.007 0.155-0.008 0,46.564 0,100.454 0,127.608 0,9.474 7.678,17.15 17.153,17.15h132.442c9.472,0 17.153-7.678 17.153-17.15 0-42.608 0-151.056 0-193.7 2.84217e-14-9.476-7.678-17.151-17.153-17.151zm-13.709,59.363c0,2.975-2.411,5.387-5.386,5.387h-94.251c-2.975,0-5.386-2.412-5.386-5.387v-30.227c0-2.975 2.412-5.386 5.386-5.386h94.251c2.975,0 5.386,2.412 5.386,5.386v30.227z" />  


</svg>